<svg height="960" viewBox="0 0 960 960" width="960" xmlns="http://www.w3.org/2000/svg"><path d="m208.935632 4.4559049 1.178345.02178762c.588407.01203961 1.175881.02580629 1.763382.04133768l1.175321.03342688c10.975305.33415312 22.182867 1.29195179 39.866976 3.11820412 4.965283.51276888 6.825225.7043323 8.589777.88077049l.453535.0452292c.455223.04528133.921198.09129729 1.449103.14325214 13.820625 1.36018507 129.27125 10.71904277 315.913719 25.67308357 1.515236.121401 1.515236.121401 3.030513.2427991 31.740482 2.5428893 77.077383 6.168466 123.711336 9.8959096l2.978278.2380509c.993268.0793901 1.987004.1588168 2.98109.2382708l2.983192.2384342 8.528644.6816347c89.552335 7.1571077 178.240416 14.2395484 179.703438 14.3604281 5.742961.4745024 10.003788.978692 14.170794 1.7921175 7.232475 1.4118239 13.675068 3.6522186 20.052495 7.7974148 8.865113 5.7621411 15.343938 14.0884361 18.822588 23.9295935 2.325781 6.5796692 3.061743 12.6518872 3.061743 19.4556122v732.990504c-.012281 5.100276-.162316 8.562435-.717152 12.51154-1.255817 8.938424-4.315916 17.198545-11.017651 24.893466-7.140169 8.198331-15.725259 12.547237-25.066708 14.651279-4.177558.940942-7.403449 1.283789-12.828032 1.644553-.392178.026082-.80145.0526-1.295657.084098-.295282.01882-.638939.040565-1.27364.080707-8.720891.552592-240.930026 18.894033-689.086821 54.433563-.420303.033331-.841106.060014-1.262251.08004-10.195312.484794-18.774839.754125-26.015668.769457h-1.194457c-8.472123-.015761-15.05629-.397208-20.224686-1.210291-22.246974-3.499855-39.988835-16.777379-47.043932-33.778716-.938516-2.261631-1.73509-4.623767-2.41989-7.168625l-.083308-.314838-87.0874577-21.364227c-17.668311-4.334443-30.16283514-20.034618-30.46410653-38.178296l-.00538995-.550548c-.49089137-164.685204-.7474063-308.865592-.77003895-432.546452l.00027022-32.786609c.0185889-111.66378.24016582-205.578667.66477825-281.74892.08810428-15.8048255 2.07112414-27.2492315 8.81384646-38.2351958 4.5291732-7.3794134 10.620738-13.0772593 17.7682369-17.1181513 2.4726037-1.397905 4.8562547-2.4884721 7.3480493-3.4540797 1.3937278-.5400904 2.3550652-.8751347 4.1211427-1.4675015.6549163-.219668 6.3758658-2.1572782 7.1607352-2.4227381 4.6261751-1.5646733 9.057604-3.057124 13.8147274-4.649757 13.495952-4.5182975 26.713619-8.870678 39.4607747-12.9657006 2.486565-.7988085 4.935389-1.5813537 7.344167-2.3467305 12.840884-4.0801261 24.347555-7.610967 34.259944-10.4881155 19.448588-5.64510461 39.044726-8.12936869 60.084246-8.2115705l.612863-.00169884 1.216391-.0002363c1.614128.00251738 3.198861.01642399 4.772405.04243354zm710.430598 788.4482541c-13.308997.801206-235.368462 14.076087-330.449512 19.778693-1.527572.091619-1.527572.091619-3.055105.18324-194.128615 11.643982-312.610744 18.832936-326.758312 19.87891-2.831643.209352-3.91494.292687-10.647491.814994-16.853417 1.307479-27.378071 1.984293-37.42182 2.219014l-1.055713.023083-1.071834.02018c-.535656.009267-1.07112.017305-1.60729.024142l-1.073545.012084c-1.612527.015752-3.236788.020877-4.897013.016156-18.182488-.051696-34.816716-1.635855-51.187516-5.205481-20.455334-4.460251-56.4270116-13.562537-108.0202023-27.328863.0450251 16.254676.0923302 32.720841.1420394 49.397386l113.5959099 27.867689c.839564 12.876629 1.976121 21.042226 3.409673 24.496791.785167 1.892093 5.263739 7.857421 16.314956 9.59598 6.08399.957122 19.190206.957122 39.31865 0 450.7301-35.743598 680.636588-53.90316 689.719464-54.478689 13.488071-.854659 14.705-.785604 14.728332-14.209491zm-.001575-224.443147c-37.157424.450697-634.617547 8.040986-660.854429 8.419479-.605457.008734-1.131264.016348-1.64887.023907l-.31015.004537c-1.81014.026525-3.694859.054978-8.717509.131008-18.838635.285169-33.714161.449498-46.705414.457242l-1.519815.000187c-7.556861-.002701-14.489933-.060068-21.222345-.179376l-1.343933-.024689c-.447169-.008507-.893572-.017291-1.339333-.026355l-1.635988-.034582c-7.351028-.161323-14.568667-.399881-22.22044-.725434-20.72285-.881674-57.6735489-2.708999-110.8750705-5.482908l.6501382.03227c.0954208 65.991499.2433498 136.584768.4438471 211.779805.6666171.039396 1.3385965.145955 2.0082828.324906 53.0282894 14.169994 89.8416604 23.500229 110.3283044 27.967307 14.888712 3.246459 30.135854 4.698519 46.983528 4.74642 1.400325.003982 2.775826.000462 4.142976-.011114l1.024054-.010202c10.91203-.125116 21.5531-.774761 40.356381-2.233508 4.604461-.357212 6.579469-.510102 8.275832-.638195l.315377-.023771c.05221-.003928.104291-.007843.156316-.01175l.312037-.023392c.520837-.038977 1.050334-.078272 1.66023-.123364 14.301186-1.057331 132.480148-8.22789 327.035488-19.897468 1.527578-.091624 1.527578-.091624 3.055194-.183246 97.524244-5.849139 328.402098-19.650709 331.011064-19.812644.207768-.012896.414446-.019351.619841-.019538zm-764.714614-249.838422c-19.968073 2.516151-57.2290344 7.693159-111.7357094 15.525177-.4687301.067351-.9345321.101029-1.3949572.102865-.0163103 19.459892-.0250558 39.52033-.026939 60.181281v22.176259c.0061823 42.384247.0400228 87.194724.1015444 134.431432.1388399-.000143.2785365.004243.4187574.011554 53.1407943 2.770743 90.0430668 4.595673 110.6838428 5.473856 5.289771.225058 10.372328.407798 15.44337.551515l1.601227.044091c1.601301.042802 3.203508.081746 4.812783.116938l1.61186.033944c7.266028.147154 14.716799.219007 22.913903.225016l2.627992-.000293c12.741098-.011917 27.353168-.1744 45.823268-.453991 4.596189-.069574 6.56722-.099346 8.257468-.124251l.314203-.004621c.104019-.001527.207514-.003044.311056-.004558l.311344-.004547c.468949-.006836.950458-.013806 1.496683-.021685 26.282705-.379154 624.88546-7.983916 661.007064-8.421382.040449-.00049.080845-.000739.121186-.000749l.000271-207.812195c-.119163-.000072-.23878-.002243-.358816-.006549-1.566757-.056198-90.576997-3.134566-181.336209-6.275603l-8.785733-.304068c-7.379769-.255414-14.752829-.510612-22.073146-.764003l-3.133915-.108481c-43.825849-1.517055-85.516219-2.960899-115.127977-3.988142-1.52313-.052839-1.52313-.052839-3.046221-.105679-194.073605-6.732992-312.15115-10.876781-326.420789-11.486458-.547509-.023392-1.030106-.044081-1.500016-.064369l-.467616-.020241c-.051917-.002254-.103893-.004511-.155998-.006777l-.314765-.01371c-1.693175-.073887-3.66611-.162148-8.266258-.368385-44.532888-1.996527-66.353676-1.960674-93.712758 1.486809zm-1.250201-267.5810978c-9.056701 2.6287784-19.166206 5.7311238-29.3944 8.9594654l-2.558981.8095092c-31.5779228 10.0113593-63.5441695 20.9451972-68.5169811 22.6131471-.470401.157779-.9272121.3114065-1.370067.4671777l-.3761636.1341901c-5.6530503 2.0476327-8.9298203 4.7615562-9.0257654 21.9729423-.3277151 58.788046-.5343845 128.168624-.6200083 208.141733l-1.4677095.211432c54.6176562-7.847964 91.9618899-13.036542 112.0798759-15.571583 28.821716-3.631788 51.486524-3.669027 97.108912-1.623656 4.874939.218557 6.791016.304245 8.552748.380845l.309862.013449c.567237.024575 1.135586.048961 1.80002.077349 14.180784.605881 132.433165 4.755805 326.260501 11.480253 1.523066.052839 1.523066.052839 3.04617.105677 35.242873 1.222589 87.611695 3.035867 140.32691 4.860344l8.786199.304084c88.173548 3.051552 174.707351 6.044339 181.020655 6.264539l-.011716-207.359128c0-10.104069-3.355237-11.784794-19.401329-13.110575-16.046092-1.3257812-607.267201-48.3589244-640.454255-51.6250963-5.309929-.5225875-10.670651-1.0945061-16.084545-1.6417272l-2.032708-.2039057-2.037721-.2007227c-27.20315-2.6512277-55.750497-4.2223375-85.939503 4.5402571zm-19.59515 60.9546548c5.522848 0 10 4.477153 10 10v134.158202c0 4.772257-3.372112 8.879501-8.053047 9.808637l-55.201756 10.957205c-2.3110082.458721-4.7097714.086716-6.7732917-1.050415l-22.7604955-12.542483c-3.1914856-1.758712-5.1736616-5.114234-5.1736616-8.758222l-.0004659-7.695335c-.0021797-.11397-.0023933-.227697-.0006659-.341139l-.000282-108.502468c-.0149239-.983635.1166849-1.950772.3794265-2.87393.009259-.030072.0179217-.060076.0267217-.090027.0857208-.292981.1853016-.581356.2976208-.864299.0657369-.165912.1361054-.330378.2107364-.492658.0986615-.213985.2047334-.424683.3180619-.631385.0138616-.025639.0277481-.050696.0417403-.075691.0302887-.053815.0611597-.107816.0925297-.161528.0133166-.022991.0267151-.045707.0402021-.068368.073652-.123703.1498716-.245834.2286998-.366305.0298201-.045308.0601244-.090757.0907964-.135952.0209584-.031297.0424301-.062594.0640806-.093772.0215337-.030478.0426375-.060472.0639049-.090349.0889842-.125792.1815469-.249855.2769972-.37179.0129462-.015438.0255522-.031418.0382071-.04736 1.0637827-1.343188 2.4802181-2.423667 4.1605743-3.084458.0183942-.006566.0366986-.01372.0550322-.020824.0601595-.023881.1208329-.046661.181839-.068894.0385929-.013648.0772477-.027505.1160259-.041137.0466901-.016718.0933721-.032704.1402414-.048371.0225111-.00732.0453045-.014868.0681389-.02234l33.2083695-10.86605c.4439425-.145262.8975173-.25924 1.3573925-.341097l28.2172785-5.022647c.578468-.102966 1.164885-.15475 1.752444-.15475zm-10.000252 20h-5.655l-10.558997 1.878906.00041 102.842646c0 4.627703-3.175213 8.650892-7.6762368 9.72626l-26.5761736 6.349094 6.8939976 3.799094 43.5719998-8.649zm-36.2139998 7.33348-21.7489976 6.127426v88.564l21.7489976-5.196426z"/></svg>