<svg height="960" viewBox="0 0 960 960" width="960" xmlns="http://www.w3.org/2000/svg"><path d="m289.699035 19.8241634 476.055048 28.0105451c21.14225 1.2439863 37.650508 18.7521228 37.650508 39.930939l-.000831 166.5244545 24.103143 2.327606c20.302166 1.959936 35.842869 18.869196 36.156337 39.197845v348.800014c0 20.218748-15.087856 37.258325-35.157918 39.705846l-37.049562 4.517689.000227 134.869577c0 19.156382-13.575067 35.593577-32.322984 39.256435l-.569693.107075-464.106444 83.797258c-10.471779 1.890743-21.265334-.46899-29.992733-6.55714l-158.318367-110.441377c-10.2453259-7.147041-16.5634579-18.670116-17.0803342-31.151291l-8.3797254-202.347867c-.0300317-.725185-.0450524-1.450914-.0450524-2.176721 0-18.885137 9.9511283-35.446063 24.895888-44.725282l.648218-.395667-1.085-174.457-.267529-.160131c-15.1522083-9.265171-24.8173729-26.341121-23.7891863-45.229226l.0514577-.822345 16.9597183-239.8436709c1.2587437-17.8011029 14.1571013-32.6151141 31.6156933-36.3112304l149.394951-31.6280439c3.493205-.739538 7.069705-1.0080206 10.63417-.7982914zm461.756619 644.3919386-406.566421 53.576111c-.454685.067527-.915673.103916-1.379797.107801l-.141995-.000789c-.011727-.00005-.023451-.000121-.03517-.000213-.061354.000325-.122734-.000825-.184154-.002547-.038434-.0016-.076494-.002818-.114505-.004253-.037502-.0011-.075528-.002823-.113566-.004765-.066937-.003466-.133215-.007395-.199335-.011978-.012969-.001138-.025973-.002091-.038979-.003069-.080718-.005624-.161257-.012517-.241545-.020374-.006165-.001386-.01216-.00199-.018155-.0026-.923117-.091231-1.81314-.310805-2.650496-.640894l-.255586-.104873-42.166407-16.756648-.000889 205.352091 454.107333-81.990423zm-474.107-602.3439999-139.394062 29.5110442-16.959719 239.8436707c-.38269 5.411997 3.694368 10.109519 9.106365 10.49221.799895.056562 1.603707.014972 2.393493-.123842 5.77995-1.015892 11.289068 2.846139 12.304961 8.626089.102925.585597.156518 1.178799.160216 1.773361l1.345979 216.45373c.044846 7.21185-5.76516 13.094565-12.97701 13.13941l-.0812.000253c-6.962667 0-12.607023 5.644356-12.607023 12.607023 0 .173936 0 .347853.010797.521641l8.379725 202.347867 148.317478 103.464543.000889-214.916091c0-7.064975 7.127281-11.902157 13.692871-9.293154l42.38624 16.843245v-381.775l-47.122616-4.943291c-5.090925-.534157-8.956495-4.826534-8.956495-9.945406zm536.314574 244.7503029-460.234 5.639v384.231l460.234-60.646zm-189.663228 256.594731v35c0 10.705917-8.433413 19.899345-19.102442 20.860833l-44 3.96526c-11.366145 1.024312-20.897558-7.648134-20.897558-19.058442v-35c0-10.705917 8.433413-19.899346 19.102442-20.860834l44-3.96526c11.366145-1.024312 20.897558 7.648135 20.897558 19.058443zm82-9.162155v34.379054c0 10.539169-8.148636 19.693678-18.606488 20.664943l-41.9375 3.894911c-11.193084 1.039549-20.456012-7.646228-20.456012-18.894528v-34.379055c0-10.539169 8.148636-19.693678 18.606488-20.664943l41.9375-3.894911c11.193084-1.039549 20.456012 7.646228 20.456012 18.894529zm77.929708-9.188718v33.786312c0 10.447578-8.080851 19.518108-18.356413 20.471166l-38.274323 3.9185c-11.104287 1.030412-20.298972-7.583941-20.298972-18.740509v-33.786312c0-10.447578 8.080851-19.518108 18.451028-20.4804l-.094615.009234 38.274323-3.9185c11.104287-1.030413 20.298972 7.58394 20.298972 18.740509zm-179.929708 19.291908-43.102442 3.885058c-.376666.033945-.897558.60178-.897558.941558v34.057384l43.102442-3.883478c.347692-.031334.818274-.517579.888614-.859446l.008944-.082111zm82-8.955-40.543988 3.76649c-.070076.006508-.456012.440085-.456012.750645v33.229865l40.543988-3.765491c.063068-.005857.381983-.35764.445136-.654337l.010876-.096308zm77.929-9.004928-36.535413 3.741988-.094615.009234c.014838-.001377-.298972.350866-.298972.565955v32.452823l36.630736-3.749713c-.01319.001224.233294-.276956.288231-.489852l.010741-.076103zm28.854315-158.857054v124.247318c0 5.226607-4.024919 9.571616-9.236261 9.970792l-318.629256 24.406266c-5.806806.444787-10.76374-4.146977-10.76374-9.970793v-137.886291c0-5.391387 4.273957-9.812211 9.662268-9.994296l318.629256-10.767291c5.652005-.190996 10.337733 4.339064 10.337733 9.994295zm-20.000257 10.343-298.629 10.091v117.424l298.629-22.875zm-475.434404-337.3410869.000889 227.1499999 46.549111 4.884 419.505-5.141.000937-199.4704545z"/></svg>