<svg height="960" viewBox="0 0 960 960" width="960" xmlns="http://www.w3.org/2000/svg"><g fill="#000" fill-rule="evenodd"><path d="m178.611952 6.23066402 673.82069 47.72036048c48.355577 3.4245692 88.567358 41.6902511 88.567358 88.8059355v584.688185c0 47.487266-40.759575 85.34902-89.470632 87.693061l-144.529368 6.953794v51.908c0 10.670141-3.632941 20.491764-9.729365 28.295411l-.286635.360589-.151667.687989c-4.638613 20.186533-22.56042 35.301077-44.071639 35.656011h-11.89182c-2.170089 0-4.327441-.132696-6.477874-.417567l-.701-.099433-.620316.091848c-1.778028.245525-3.586589.386888-5.421531.425152h-19.648153c-21.340283 0-39.28649-14.531763-44.482966-34.23963l-.114034-.44537-.329979-.378693c-6.749163-7.866988-10.886318-18.040394-11.066858-29.175613l-.006163-.760694v-44.45l-178.649 8.597-.002677.067544c-1.172628 24.098189-20.889102 43.326885-45.184126 43.720792l-.760694.006163h-22.00011c-22.610537 0-41.410918-16.313222-45.273414-37.811614l-.090979-.529885-27.97 1.346-.002694.332636c-.402113 24.80117-20.431974 44.83103-45.233143 45.233143l-.760694.006163h-22.00011c-25.405098 0-46-20.594902-46-45.999981l-.000359-9.384961-27.4642898-8.140839c-3.5452562-1.050901-6.8586361-2.562701-9.8823355-4.458543l-.1943747-.123618-.4297552-.216144c-28.239966-14.430039-46.7010718-42.813707-47.0948197-75.19193l-.0064251-1.057215v-380.973711l-2.290158-2.136921c-7.9718464-7.439078-12.5554393-17.803932-12.709842-28.690613v-202.190188c0-12.277005 5.637869-23.87402 15.2928906-31.457253l2.3561094-1.851025.015655-.0616535c5.5562668-21.5890928 19.4937162-40.0100986 38.8956851-51.5118358l.0206599-.0135107.0397509-.0283962c1.6618918-1.2522026 3.4339-2.3837091 5.3063132-3.3785064l.4338733-.2271346 39.2550626-20.2469628.523447-.3854848c16.624248-12.1342436 37.188655-18.06818539 58.472505-16.56085118zm488.388048 797.38569498-75 3.599v66.784641c0 3.313708 2.686292 6 6 6h4v13c0 3.313708 2.686292 6 6 6h18.860147c1.277261 0 2.165831-.422586 3.019065-.883588l.510527-.278138c.853234-.461003 1.741804-.883588 3.019065-.883588 4.449073 0 3.33723 2.045314 7.46007 2.045314h11.131126c3.313708 0 6-2.686292 6-6v-13h3c3.313708 0 6-2.686292 6-6zm-508.92828 21.917958.000639 18.983625c0 3.313708 2.686292 6 6 6h22.00011c3.313708 0 6-2.686292 6-6l-.000469-18.110583-15.143272.727988c-6.516137.312702-12.838935-.256185-18.857008-1.60103zm175.33128-5.908958-34 1.632.000393 14.68414c0 3.313708 2.686292 6 6 6h22.00011c3.313709 0 6-2.686292 6-6zm567.597-190.095-752.922505 20.70458c-.457309.012575-.914943-.006247-1.369676-.056332l-22.159819-2.441248.000177 110.542832c0 28.357517 23.022358 50.241009 51.421875 48.878145l674.197917-32.354052c10.303379-.494448 19.898991-3.616636 27.944214-8.586002 13.799057-8.781176 22.887817-23.060978 22.887817-38.773137zm-796.452-272.505-29.1027385 9.907644c-.814013.27711-1.6299918.498864-2.4444848.66773l-.0007767 378.343978c0 19.192068 11.8228364 35.24337 28.973109 42.321311l.002657.375555 11.169324 3.311262c-5.481199-9.906576-8.596913-21.367954-8.596913-33.672648zm20.433172-268.6252201-.025303.2185468c.029237.4543525.044131.9148729.044131 1.3813143v245.744711c0 1.442822-.154767 2.858675-.450926 4.228879l-.000908 287.702978c.361712.000444.727028.020464 1.094809.060972l22.573202 2.485375 752.783823-20.699556v-466.766399c0-7.199644-1.908336-14.141858-5.303792-20.425812-8.609623-14.968042-25.767202-25.97065-45.528239-27.3662878l-674.197917-47.615727c-26.127556-1.8452779-47.703884 16.0881835-50.98888 41.0510057zm401.463074 252.5633551 1.785292.014533 22.854166.371385c59.49646.966827 107.681921 49.935311 107.681921 109.433069 0 59.624683-48.38354 107.221982-108.006881 106.253093l-22.854167-.371385c-59.496459-.966828-107.681921-49.935311-107.681921-109.433069 0-58.432189 46.467552-105.313279 104.443266-106.253239zm-86.22159 106.267626c0 48.578183 39.4274 88.646284 88.006882 89.435709l22.854166.371385c48.4526.787363 87.681921-37.804475 87.681921-86.255733 0-48.578183-39.4274-88.646285-88.006881-89.43571l-22.854167-.371384c-48.4526-.787363-87.681921 37.804475-87.681921 86.255733zm-335.514779-356.9713542-31.6902444 28.2201122c-.0117309.425343-.0176326.852443-.0176326 1.281236v.410886l-7.564 5.940359-7.436 8.517755v198.959354l10.894 10.165891v-220.127l.104 220.224 3.257 3.039 32.293-10.993.000177-240.8351063c0-1.617184.053803-3.2188729.1597-4.8034869z" fill-rule="nonzero"/><path d="m481.644531 402.617292 114.270834.845141v67.134115l-114.270834-.845141z"/><path d="m500.927734 515.602358c3.54994.026255 6.427735-2.830256 6.427735-6.380195 0-3.54994-2.877795-6.449019-6.427735-6.475274-3.549939-.026255-6.427734 2.830256-6.427734 6.380195 0 3.54994 2.877795 6.449019 6.427734 6.475274z"/><path d="m526.162543 515.788993c3.54994.026255 6.427735-2.830255 6.427735-6.380195s-2.877795-6.449018-6.427735-6.475274c-3.549939-.026255-6.427734 2.830256-6.427734 6.380196 0 3.549939 2.877795 6.449018 6.427734 6.475273z"/><path d="m551.397352 515.975628c3.54994.026256 6.427735-2.830255 6.427735-6.380195s-2.877795-6.449018-6.427735-6.475273c-3.549939-.026256-6.427734 2.830255-6.427734 6.380195s2.877795 6.449018 6.427734 6.475273z"/><path d="m576.632161 516.162264c3.54994.026255 6.427735-2.830256 6.427735-6.380196 0-3.549939-2.877795-6.449018-6.427735-6.475273-3.549939-.026255-6.427734 2.830255-6.427734 6.380195s2.877795 6.449018 6.427734 6.475274z"/></g></svg>